<svg xmlns="http://www.w3.org/2000/svg" width="24" height="24" viewBox="0 0 24 24" fill="none" stroke="#dc2626" stroke-width="2" stroke-linecap="round" stroke-linejoin="round">
  <!-- Trash/Delete icon for uninstall -->
  <polyline points="3,6 5,6 21,6"/>
  <path d="M19,6v14a2,2 0 0,1 -2,2H7a2,2 0 0,1 -2,-2V6m3,0V4a2,2 0 0,1 2,-2h4a2,2 0 0,1 2,2v2"/>
  <line x1="10" y1="11" x2="10" y2="17"/>
  <line x1="14" y1="11" x2="14" y2="17"/>
  <!-- Additional warning elements -->
  <circle cx="18" cy="6" r="2" fill="#dc2626" opacity="0.3"/>
  <path d="M17.5 5.5l1 1m-1 0l1-1" stroke="white" stroke-width="1"/>
</svg>